<mxfile host="Electron" agent="Mozilla/5.0 (X11; Linux x86_64) AppleWebKit/537.36 (KHTML, like Gecko) draw.io/24.7.17 Chrome/128.0.6613.186 Electron/32.2.3 Safari/537.36" version="24.7.17" pages="2">
  <diagram name="Page-1" id="r7G6-msiFNDbEfIQwIHp">
    <mxGraphModel dx="2545" dy="1354" grid="1" gridSize="10" guides="1" tooltips="1" connect="1" arrows="1" fold="1" page="1" pageScale="1" pageWidth="1600" pageHeight="900" background="none" math="0" shadow="0">
      <root>
        <mxCell id="0" />
        <mxCell id="1" parent="0" />
        <mxCell id="XfuuROyitthQNEPASvEh-1" value="&lt;font style=&quot;font-size: 18px;&quot;&gt;Components:&lt;/font&gt;&lt;div style=&quot;font-size: 18px;&quot;&gt;&lt;ol&gt;&lt;li&gt;&lt;font style=&quot;font-size: 18px;&quot;&gt;Level Sensor&lt;/font&gt;&lt;/li&gt;&lt;li&gt;&lt;font style=&quot;font-size: 18px;&quot;&gt;Pump &amp;amp; Motor&lt;/font&gt;&lt;/li&gt;&lt;li&gt;&lt;font style=&quot;font-size: 18px;&quot;&gt;Water Tank&lt;/font&gt;&lt;/li&gt;&lt;/ol&gt;&lt;/div&gt;" style="shape=note;whiteSpace=wrap;html=1;backgroundOutline=1;fontColor=#000000;darkOpacity=0.05;fillColor=#FFF9B2;strokeColor=none;fillStyle=solid;direction=west;gradientDirection=north;gradientColor=#FFF2A1;shadow=1;size=20;pointerEvents=1;align=left;rounded=0;" vertex="1" parent="1">
          <mxGeometry x="50" y="50" width="170" height="180" as="geometry" />
        </mxCell>
        <mxCell id="XfuuROyitthQNEPASvEh-3" value="" style="verticalLabelPosition=bottom;align=center;outlineConnect=0;dashed=0;html=1;verticalAlign=top;shape=mxgraph.pid.flow_sensors.ultrasonic;rounded=0;" vertex="1" parent="1">
          <mxGeometry x="1040" y="370" width="50" height="50" as="geometry" />
        </mxCell>
        <mxCell id="XfuuROyitthQNEPASvEh-16" value="" style="edgeStyle=orthogonalEdgeStyle;rounded=0;orthogonalLoop=1;jettySize=auto;html=1;" edge="1" parent="1" source="XfuuROyitthQNEPASvEh-6" target="XfuuROyitthQNEPASvEh-7">
          <mxGeometry relative="1" as="geometry" />
        </mxCell>
        <mxCell id="XfuuROyitthQNEPASvEh-6" value="M" style="dashed=0;outlineConnect=0;align=center;html=1;shape=mxgraph.pid.engines.electric_motor;fontSize=45;rounded=0;" vertex="1" parent="1">
          <mxGeometry x="650" y="155" width="100" height="100" as="geometry" />
        </mxCell>
        <mxCell id="XfuuROyitthQNEPASvEh-7" value="" style="shape=mxgraph.pid.pumps.centrifugal_pump_1;html=1;pointerEvents=1;align=center;verticalLabelPosition=bottom;verticalAlign=top;dashed=0;rounded=0;" vertex="1" parent="1">
          <mxGeometry x="650" y="298.5" width="100" height="97" as="geometry" />
        </mxCell>
        <mxCell id="XfuuROyitthQNEPASvEh-24" style="edgeStyle=orthogonalEdgeStyle;rounded=0;orthogonalLoop=1;jettySize=auto;html=1;" edge="1" parent="1" source="XfuuROyitthQNEPASvEh-9" target="XfuuROyitthQNEPASvEh-3">
          <mxGeometry relative="1" as="geometry" />
        </mxCell>
        <mxCell id="XfuuROyitthQNEPASvEh-9" value="" style="shape=mxgraph.pid.vessels.tank,_vessel;html=1;pointerEvents=1;align=center;verticalLabelPosition=bottom;verticalAlign=top;dashed=0;rounded=0;" vertex="1" parent="1">
          <mxGeometry x="850" y="360" width="100" height="70" as="geometry" />
        </mxCell>
        <mxCell id="XfuuROyitthQNEPASvEh-23" style="edgeStyle=orthogonalEdgeStyle;rounded=0;orthogonalLoop=1;jettySize=auto;html=1;entryX=0.211;entryY=0.012;entryDx=0;entryDy=0;entryPerimeter=0;" edge="1" parent="1" source="XfuuROyitthQNEPASvEh-7" target="XfuuROyitthQNEPASvEh-9">
          <mxGeometry relative="1" as="geometry">
            <mxPoint x="890" y="310" as="targetPoint" />
            <Array as="points">
              <mxPoint x="871" y="315" />
            </Array>
          </mxGeometry>
        </mxCell>
        <mxCell id="XfuuROyitthQNEPASvEh-25" style="edgeStyle=orthogonalEdgeStyle;rounded=0;orthogonalLoop=1;jettySize=auto;html=1;entryX=1;entryY=0.5;entryDx=0;entryDy=0;entryPerimeter=0;" edge="1" parent="1" source="XfuuROyitthQNEPASvEh-10" target="XfuuROyitthQNEPASvEh-6">
          <mxGeometry relative="1" as="geometry">
            <Array as="points">
              <mxPoint x="850" y="205" />
            </Array>
          </mxGeometry>
        </mxCell>
        <mxCell id="XfuuROyitthQNEPASvEh-27" value="" style="pointerEvents=1;verticalLabelPosition=bottom;shadow=0;dashed=0;align=center;html=1;verticalAlign=top;shape=mxgraph.electrical.waveforms.sine_wave;" vertex="1" parent="1">
          <mxGeometry x="554" y="527" width="90" height="66.18" as="geometry" />
        </mxCell>
        <mxCell id="XfuuROyitthQNEPASvEh-28" style="edgeStyle=orthogonalEdgeStyle;rounded=0;orthogonalLoop=1;jettySize=auto;html=1;entryX=0.01;entryY=0.5;entryDx=0;entryDy=0;entryPerimeter=0;exitX=0.501;exitY=0.477;exitDx=0;exitDy=0;exitPerimeter=0;" edge="1" parent="1" source="XfuuROyitthQNEPASvEh-27">
          <mxGeometry relative="1" as="geometry">
            <mxPoint x="599" y="561" as="sourcePoint" />
            <mxPoint x="650" y="348" as="targetPoint" />
            <Array as="points">
              <mxPoint x="599" y="348" />
            </Array>
          </mxGeometry>
        </mxCell>
        <mxCell id="XfuuROyitthQNEPASvEh-29" value="" style="edgeStyle=orthogonalEdgeStyle;rounded=0;orthogonalLoop=1;jettySize=auto;html=1;" edge="1" parent="1" source="XfuuROyitthQNEPASvEh-3" target="XfuuROyitthQNEPASvEh-12">
          <mxGeometry relative="1" as="geometry">
            <mxPoint x="1065" y="370" as="sourcePoint" />
            <mxPoint x="1030" y="160" as="targetPoint" />
            <Array as="points">
              <mxPoint x="1065" y="201" />
              <mxPoint x="990" y="201" />
              <mxPoint x="990" y="201" />
            </Array>
          </mxGeometry>
        </mxCell>
        <mxCell id="XfuuROyitthQNEPASvEh-12" value="" style="outlineConnect=0;fontColor=#232F3E;gradientColor=none;fillColor=#7AA116;strokeColor=none;dashed=0;verticalLabelPosition=bottom;verticalAlign=top;align=center;html=1;fontSize=12;fontStyle=0;aspect=fixed;pointerEvents=1;shape=mxgraph.aws4.iot_thing_plc;rounded=0;" vertex="1" parent="1">
          <mxGeometry x="950" y="166" width="78" height="78" as="geometry" />
        </mxCell>
        <mxCell id="XfuuROyitthQNEPASvEh-10" value="" style="html=1;strokeWidth=1;shadow=0;dashed=0;shape=mxgraph.ios7.misc.switch;fillColor=#8F8E94;strokeColor=none;buttonText=;strokeColor2=#222222;fontColor=#222222;fontSize=8;verticalLabelPosition=bottom;verticalAlign=top;align=center;rounded=0;" vertex="1" parent="1">
          <mxGeometry x="830" y="179" width="50" height="51" as="geometry" />
        </mxCell>
        <mxCell id="XfuuROyitthQNEPASvEh-31" style="edgeStyle=orthogonalEdgeStyle;rounded=0;orthogonalLoop=1;jettySize=auto;html=1;entryX=0.968;entryY=0.516;entryDx=0;entryDy=0;entryPerimeter=0;" edge="1" parent="1" source="XfuuROyitthQNEPASvEh-12" target="XfuuROyitthQNEPASvEh-10">
          <mxGeometry relative="1" as="geometry" />
        </mxCell>
      </root>
    </mxGraphModel>
  </diagram>
  <diagram id="18eVjP8CNNq3zacc5nZO" name="Page-2">
    <mxGraphModel dx="1838" dy="940" grid="1" gridSize="10" guides="1" tooltips="1" connect="1" arrows="1" fold="1" page="1" pageScale="1" pageWidth="1600" pageHeight="900" math="0" shadow="0">
      <root>
        <mxCell id="0" />
        <mxCell id="1" parent="0" />
        <mxCell id="PLQV0hYqcaqGxVNB4rza-23" style="edgeStyle=orthogonalEdgeStyle;rounded=0;orthogonalLoop=1;jettySize=auto;html=1;exitX=1;exitY=0.5;exitDx=0;exitDy=0;entryX=0;entryY=0.5;entryDx=0;entryDy=0;" edge="1" parent="1" source="PLQV0hYqcaqGxVNB4rza-1" target="PLQV0hYqcaqGxVNB4rza-8">
          <mxGeometry relative="1" as="geometry" />
        </mxCell>
        <mxCell id="PLQV0hYqcaqGxVNB4rza-1" value="Turn on the pump" style="shape=parallelogram;perimeter=parallelogramPerimeter;whiteSpace=wrap;html=1;fixedSize=1;" vertex="1" parent="1">
          <mxGeometry x="444" y="530" width="120" height="60" as="geometry" />
        </mxCell>
        <mxCell id="PLQV0hYqcaqGxVNB4rza-21" style="edgeStyle=orthogonalEdgeStyle;rounded=0;orthogonalLoop=1;jettySize=auto;html=1;exitX=1;exitY=1;exitDx=0;exitDy=0;" edge="1" parent="1" source="PLQV0hYqcaqGxVNB4rza-3" target="PLQV0hYqcaqGxVNB4rza-1">
          <mxGeometry relative="1" as="geometry" />
        </mxCell>
        <mxCell id="PLQV0hYqcaqGxVNB4rza-22" style="edgeStyle=orthogonalEdgeStyle;rounded=0;orthogonalLoop=1;jettySize=auto;html=1;exitX=1;exitY=0;exitDx=0;exitDy=0;" edge="1" parent="1" source="PLQV0hYqcaqGxVNB4rza-3" target="PLQV0hYqcaqGxVNB4rza-5">
          <mxGeometry relative="1" as="geometry" />
        </mxCell>
        <mxCell id="PLQV0hYqcaqGxVNB4rza-3" value="Is water is below x meter?" style="rhombus;whiteSpace=wrap;html=1;" vertex="1" parent="1">
          <mxGeometry x="190" y="340" width="190" height="190" as="geometry" />
        </mxCell>
        <mxCell id="PLQV0hYqcaqGxVNB4rza-33" style="edgeStyle=orthogonalEdgeStyle;rounded=0;orthogonalLoop=1;jettySize=auto;html=1;entryX=0.5;entryY=0;entryDx=0;entryDy=0;" edge="1" parent="1" source="PLQV0hYqcaqGxVNB4rza-5" target="PLQV0hYqcaqGxVNB4rza-3">
          <mxGeometry relative="1" as="geometry">
            <Array as="points">
              <mxPoint x="510" y="200" />
              <mxPoint x="285" y="200" />
            </Array>
          </mxGeometry>
        </mxCell>
        <mxCell id="PLQV0hYqcaqGxVNB4rza-5" value="Continue checking" style="shape=parallelogram;perimeter=parallelogramPerimeter;whiteSpace=wrap;html=1;fixedSize=1;" vertex="1" parent="1">
          <mxGeometry x="450" y="280" width="120" height="60" as="geometry" />
        </mxCell>
        <mxCell id="PLQV0hYqcaqGxVNB4rza-24" style="edgeStyle=orthogonalEdgeStyle;rounded=0;orthogonalLoop=1;jettySize=auto;html=1;exitX=1;exitY=0;exitDx=0;exitDy=0;" edge="1" parent="1" source="PLQV0hYqcaqGxVNB4rza-8" target="PLQV0hYqcaqGxVNB4rza-11">
          <mxGeometry relative="1" as="geometry" />
        </mxCell>
        <mxCell id="PLQV0hYqcaqGxVNB4rza-25" style="edgeStyle=orthogonalEdgeStyle;rounded=0;orthogonalLoop=1;jettySize=auto;html=1;exitX=1;exitY=1;exitDx=0;exitDy=0;" edge="1" parent="1" source="PLQV0hYqcaqGxVNB4rza-8" target="PLQV0hYqcaqGxVNB4rza-12">
          <mxGeometry relative="1" as="geometry" />
        </mxCell>
        <mxCell id="PLQV0hYqcaqGxVNB4rza-8" value="Is water level rising?" style="rhombus;whiteSpace=wrap;html=1;" vertex="1" parent="1">
          <mxGeometry x="660" y="490" width="140" height="140" as="geometry" />
        </mxCell>
        <mxCell id="PLQV0hYqcaqGxVNB4rza-31" style="edgeStyle=orthogonalEdgeStyle;rounded=0;orthogonalLoop=1;jettySize=auto;html=1;exitX=1;exitY=0.5;exitDx=0;exitDy=0;entryX=0;entryY=0.5;entryDx=0;entryDy=0;" edge="1" parent="1" source="PLQV0hYqcaqGxVNB4rza-11" target="PLQV0hYqcaqGxVNB4rza-30">
          <mxGeometry relative="1" as="geometry" />
        </mxCell>
        <mxCell id="PLQV0hYqcaqGxVNB4rza-11" value="Check for height" style="shape=parallelogram;perimeter=parallelogramPerimeter;whiteSpace=wrap;html=1;fixedSize=1;" vertex="1" parent="1">
          <mxGeometry x="930" y="430" width="120" height="60" as="geometry" />
        </mxCell>
        <mxCell id="EUzcuMT9F8m7jiTUoN_T-10" style="edgeStyle=orthogonalEdgeStyle;rounded=0;orthogonalLoop=1;jettySize=auto;html=1;exitX=1;exitY=0.5;exitDx=0;exitDy=0;" edge="1" parent="1" source="PLQV0hYqcaqGxVNB4rza-12" target="EUzcuMT9F8m7jiTUoN_T-9">
          <mxGeometry relative="1" as="geometry">
            <Array as="points">
              <mxPoint x="1110" y="660" />
              <mxPoint x="1110" y="660" />
            </Array>
          </mxGeometry>
        </mxCell>
        <mxCell id="PLQV0hYqcaqGxVNB4rza-12" value="Need priming" style="shape=parallelogram;perimeter=parallelogramPerimeter;whiteSpace=wrap;html=1;fixedSize=1;" vertex="1" parent="1">
          <mxGeometry x="930" y="630" width="120" height="60" as="geometry" />
        </mxCell>
        <mxCell id="PLQV0hYqcaqGxVNB4rza-26" value="YES" style="text;html=1;align=center;verticalAlign=middle;resizable=0;points=[];autosize=1;strokeColor=none;fillColor=none;" vertex="1" parent="1">
          <mxGeometry x="360" y="490" width="50" height="30" as="geometry" />
        </mxCell>
        <mxCell id="PLQV0hYqcaqGxVNB4rza-27" value="NO" style="text;html=1;align=center;verticalAlign=middle;resizable=0;points=[];autosize=1;strokeColor=none;fillColor=none;" vertex="1" parent="1">
          <mxGeometry x="365" y="348" width="40" height="30" as="geometry" />
        </mxCell>
        <mxCell id="PLQV0hYqcaqGxVNB4rza-28" value="YES" style="text;html=1;align=center;verticalAlign=middle;resizable=0;points=[];autosize=1;strokeColor=none;fillColor=none;" vertex="1" parent="1">
          <mxGeometry x="795" y="458" width="50" height="30" as="geometry" />
        </mxCell>
        <mxCell id="PLQV0hYqcaqGxVNB4rza-29" value="NO" style="text;html=1;align=center;verticalAlign=middle;resizable=0;points=[];autosize=1;strokeColor=none;fillColor=none;" vertex="1" parent="1">
          <mxGeometry x="790" y="628" width="40" height="30" as="geometry" />
        </mxCell>
        <mxCell id="EUzcuMT9F8m7jiTUoN_T-2" style="edgeStyle=orthogonalEdgeStyle;rounded=0;orthogonalLoop=1;jettySize=auto;html=1;exitX=0.5;exitY=0;exitDx=0;exitDy=0;entryX=0.5;entryY=0;entryDx=0;entryDy=0;" edge="1" parent="1" source="PLQV0hYqcaqGxVNB4rza-30" target="PLQV0hYqcaqGxVNB4rza-8">
          <mxGeometry relative="1" as="geometry" />
        </mxCell>
        <mxCell id="EUzcuMT9F8m7jiTUoN_T-8" style="edgeStyle=orthogonalEdgeStyle;rounded=0;orthogonalLoop=1;jettySize=auto;html=1;exitX=1;exitY=0.5;exitDx=0;exitDy=0;" edge="1" parent="1" source="PLQV0hYqcaqGxVNB4rza-30" target="EUzcuMT9F8m7jiTUoN_T-7">
          <mxGeometry relative="1" as="geometry">
            <Array as="points">
              <mxPoint x="1360" y="460" />
              <mxPoint x="1360" y="460" />
            </Array>
          </mxGeometry>
        </mxCell>
        <mxCell id="PLQV0hYqcaqGxVNB4rza-30" value="Is water level is above y meter?" style="rhombus;whiteSpace=wrap;html=1;" vertex="1" parent="1">
          <mxGeometry x="1140" y="420" width="80" height="80" as="geometry" />
        </mxCell>
        <mxCell id="EUzcuMT9F8m7jiTUoN_T-3" value="NO" style="text;html=1;align=center;verticalAlign=middle;resizable=0;points=[];autosize=1;strokeColor=none;fillColor=none;" vertex="1" parent="1">
          <mxGeometry x="1160" y="360" width="40" height="30" as="geometry" />
        </mxCell>
        <mxCell id="EUzcuMT9F8m7jiTUoN_T-7" value="Turn of the pump" style="shape=parallelogram;perimeter=parallelogramPerimeter;whiteSpace=wrap;html=1;fixedSize=1;" vertex="1" parent="1">
          <mxGeometry x="1400" y="428" width="120" height="60" as="geometry" />
        </mxCell>
        <mxCell id="EUzcuMT9F8m7jiTUoN_T-9" value="Report operator for priming &amp;amp; turn off the pump" style="shape=parallelogram;perimeter=parallelogramPerimeter;whiteSpace=wrap;html=1;fixedSize=1;" vertex="1" parent="1">
          <mxGeometry x="1120" y="628" width="120" height="60" as="geometry" />
        </mxCell>
        <mxCell id="EUzcuMT9F8m7jiTUoN_T-11" value="YES" style="text;html=1;align=center;verticalAlign=middle;resizable=0;points=[];autosize=1;strokeColor=none;fillColor=none;" vertex="1" parent="1">
          <mxGeometry x="1225" y="468" width="50" height="30" as="geometry" />
        </mxCell>
      </root>
    </mxGraphModel>
  </diagram>
</mxfile>
